<svg xmlns="http://www.w3.org/2000/svg" xmlns:xlink="http://www.w3.org/1999/xlink" width="500" zoomAndPan="magnify" viewBox="0 0 375 374.999991" height="500" preserveAspectRatio="xMidYMid meet" version="1.0"><defs><clipPath id="a582007c45"><path d="M 1.53125 1.53125 L 373.53125 1.53125 L 373.53125 373.53125 L 1.53125 373.53125 Z M 1.53125 1.53125 " clip-rule="nonzero"/></clipPath></defs><g clip-path="url(#a582007c45)"><path fill="#002a62" d="M 187.519531 373.53125 C 84.738281 373.53125 1.460938 290.253906 1.460938 187.519531 C 1.460938 84.738281 84.738281 1.460938 187.519531 1.460938 C 290.253906 1.460938 373.53125 84.738281 373.53125 187.519531 C 373.53125 290.253906 290.253906 373.53125 187.519531 373.53125 Z M 187.519531 272.335938 C 234.371094 272.335938 272.335938 234.371094 272.335938 187.519531 C 272.335938 146.925781 243.851562 112.976562 205.734375 104.640625 C 189.65625 101.117188 191.886719 83.152344 201.714844 78.089844 C 211.691406 72.925781 218.488281 62.554688 218.488281 50.542969 C 218.488281 33.421875 204.644531 19.527344 187.519531 19.527344 C 170.398438 19.527344 156.503906 33.421875 156.503906 50.542969 C 156.503906 62.554688 163.300781 72.925781 173.277344 78.089844 C 183.105469 83.152344 185.335938 101.117188 169.257812 104.640625 C 131.191406 112.976562 102.65625 146.925781 102.65625 187.519531 C 102.65625 234.371094 140.621094 272.335938 187.519531 272.335938 Z M 187.519531 272.335938 " fill-opacity="1" fill-rule="evenodd"/></g></svg>