<svg xmlns="http://www.w3.org/2000/svg" xmlns:xlink="http://www.w3.org/1999/xlink" width="52" zoomAndPan="magnify" viewBox="0 0 39 10.5" height="14" preserveAspectRatio="xMidYMid meet" version="1.0"><defs><g/></defs><g fill="#ffffff" fill-opacity="1"><g transform="translate(2.434203, 6.947253)"><g><path d="M 0.5625 0 L 0.5625 -4.328125 L 2.40625 -4.328125 C 2.675781 -4.328125 2.898438 -4.285156 3.078125 -4.203125 C 3.265625 -4.117188 3.40625 -4 3.5 -3.84375 C 3.59375 -3.6875 3.640625 -3.503906 3.640625 -3.296875 C 3.640625 -3.097656 3.59375 -2.925781 3.5 -2.78125 C 3.414062 -2.632812 3.285156 -2.519531 3.109375 -2.4375 L 3.109375 -2.375 C 3.378906 -2.300781 3.585938 -2.171875 3.734375 -1.984375 C 3.878906 -1.796875 3.953125 -1.566406 3.953125 -1.296875 C 3.953125 -0.878906 3.828125 -0.554688 3.578125 -0.328125 C 3.335938 -0.109375 2.96875 0 2.46875 0 Z M 2.234375 -2.609375 C 2.628906 -2.609375 2.828125 -2.785156 2.828125 -3.140625 C 2.828125 -3.328125 2.773438 -3.460938 2.671875 -3.546875 C 2.578125 -3.640625 2.429688 -3.6875 2.234375 -3.6875 L 1.421875 -3.6875 L 1.421875 -2.609375 Z M 2.390625 -0.671875 C 2.859375 -0.671875 3.09375 -0.882812 3.09375 -1.3125 C 3.09375 -1.75 2.859375 -1.96875 2.390625 -1.96875 L 1.421875 -1.96875 L 1.421875 -0.671875 Z M 2.390625 -0.671875 "/></g></g></g><g fill="#ffffff" fill-opacity="1"><g transform="translate(6.277955, 6.947253)"><g><path d="M 1.5 0.0625 C 1.125 0.0625 0.847656 -0.0351562 0.671875 -0.234375 C 0.503906 -0.429688 0.421875 -0.71875 0.421875 -1.09375 L 0.421875 -3.265625 L 1.234375 -3.265625 L 1.234375 -1.203125 C 1.234375 -1.003906 1.273438 -0.859375 1.359375 -0.765625 C 1.453125 -0.671875 1.585938 -0.625 1.765625 -0.625 C 1.992188 -0.625 2.171875 -0.695312 2.296875 -0.84375 C 2.421875 -1 2.484375 -1.238281 2.484375 -1.5625 L 2.484375 -3.265625 L 3.3125 -3.265625 L 3.3125 0 L 2.515625 0 L 2.515625 -0.484375 L 2.453125 -0.5 C 2.347656 -0.3125 2.21875 -0.171875 2.0625 -0.078125 C 1.914062 0.015625 1.726562 0.0625 1.5 0.0625 Z M 1.5 0.0625 "/></g></g></g><g fill="#ffffff" fill-opacity="1"><g transform="translate(9.665274, 6.947253)"><g><path d="M 0.875 -3.65625 C 0.726562 -3.65625 0.609375 -3.695312 0.515625 -3.78125 C 0.421875 -3.875 0.375 -3.992188 0.375 -4.140625 C 0.375 -4.273438 0.421875 -4.390625 0.515625 -4.484375 C 0.609375 -4.578125 0.726562 -4.625 0.875 -4.625 C 0.976562 -4.625 1.066406 -4.601562 1.140625 -4.5625 C 1.222656 -4.519531 1.285156 -4.460938 1.328125 -4.390625 C 1.367188 -4.316406 1.390625 -4.234375 1.390625 -4.140625 C 1.390625 -4.046875 1.367188 -3.960938 1.328125 -3.890625 C 1.285156 -3.816406 1.222656 -3.757812 1.140625 -3.71875 C 1.066406 -3.675781 0.976562 -3.65625 0.875 -3.65625 Z M 0.46875 0 L 0.46875 -3.265625 L 1.296875 -3.265625 L 1.296875 0 Z M 0.46875 0 "/></g></g></g><g fill="#ffffff" fill-opacity="1"><g transform="translate(11.031251, 6.947253)"><g><path d="M 1.359375 0.0625 C 1.066406 0.0625 0.84375 -0.015625 0.6875 -0.171875 C 0.53125 -0.335938 0.453125 -0.582031 0.453125 -0.90625 L 0.453125 -4.578125 L 1.265625 -4.578125 L 1.265625 -0.9375 C 1.265625 -0.738281 1.347656 -0.640625 1.515625 -0.640625 C 1.566406 -0.640625 1.617188 -0.644531 1.671875 -0.65625 L 1.71875 -0.640625 L 1.78125 -0.015625 C 1.738281 0.00390625 1.675781 0.0195312 1.59375 0.03125 C 1.519531 0.0507812 1.441406 0.0625 1.359375 0.0625 Z M 1.359375 0.0625 "/></g></g></g><g fill="#ffffff" fill-opacity="1"><g transform="translate(12.515781, 6.947253)"><g><path d="M 1.609375 0.0625 C 1.347656 0.0625 1.117188 0 0.921875 -0.125 C 0.722656 -0.25 0.566406 -0.4375 0.453125 -0.6875 C 0.347656 -0.945312 0.296875 -1.257812 0.296875 -1.625 C 0.296875 -2 0.351562 -2.3125 0.46875 -2.5625 C 0.582031 -2.820312 0.738281 -3.015625 0.9375 -3.140625 C 1.144531 -3.265625 1.382812 -3.328125 1.65625 -3.328125 C 1.851562 -3.328125 2.023438 -3.289062 2.171875 -3.21875 C 2.328125 -3.144531 2.457031 -3.035156 2.5625 -2.890625 L 2.625 -2.90625 L 2.625 -4.578125 L 3.4375 -4.578125 L 3.4375 0 L 2.625 0 L 2.625 -0.421875 L 2.5625 -0.4375 C 2.46875 -0.28125 2.34375 -0.15625 2.1875 -0.0625 C 2.03125 0.0195312 1.835938 0.0625 1.609375 0.0625 Z M 1.875 -0.640625 C 2.101562 -0.640625 2.285156 -0.71875 2.421875 -0.875 C 2.554688 -1.039062 2.625 -1.289062 2.625 -1.625 C 2.625 -1.96875 2.554688 -2.21875 2.421875 -2.375 C 2.285156 -2.539062 2.101562 -2.625 1.875 -2.625 C 1.632812 -2.625 1.453125 -2.546875 1.328125 -2.390625 C 1.203125 -2.234375 1.140625 -1.976562 1.140625 -1.625 C 1.140625 -1.28125 1.203125 -1.03125 1.328125 -0.875 C 1.453125 -0.71875 1.632812 -0.640625 1.875 -0.640625 Z M 1.875 -0.640625 "/></g></g></g><g fill="#ffffff" fill-opacity="1"><g transform="translate(16.518006, 6.947253)"><g><path d="M 3.890625 0 L 3.34375 0 L 2.953125 -1.1875 L 1.109375 -1.1875 L 0.703125 0 L 0.171875 0 L 1.6875 -4.328125 L 2.390625 -4.328125 Z M 2 -3.796875 L 1.25 -1.609375 L 2.8125 -1.609375 L 2.0625 -3.796875 Z M 2 -3.796875 "/></g></g></g><g fill="#ffffff" fill-opacity="1"><g transform="translate(20.195782, 6.947253)"><g><path d="M 0.5625 1.328125 L 0.5625 -3.265625 L 1.046875 -3.265625 L 1.046875 -2.78125 L 1.109375 -2.765625 C 1.359375 -3.140625 1.71875 -3.328125 2.1875 -3.328125 C 2.457031 -3.328125 2.691406 -3.265625 2.890625 -3.140625 C 3.097656 -3.015625 3.253906 -2.820312 3.359375 -2.5625 C 3.472656 -2.3125 3.53125 -2 3.53125 -1.625 C 3.53125 -1.257812 3.472656 -0.945312 3.359375 -0.6875 C 3.242188 -0.4375 3.078125 -0.25 2.859375 -0.125 C 2.648438 0 2.410156 0.0625 2.140625 0.0625 C 1.921875 0.0625 1.722656 0.0234375 1.546875 -0.046875 C 1.378906 -0.128906 1.234375 -0.257812 1.109375 -0.4375 L 1.046875 -0.421875 L 1.046875 1.328125 Z M 2.046875 -0.375 C 2.703125 -0.375 3.03125 -0.789062 3.03125 -1.625 C 3.03125 -2.46875 2.703125 -2.890625 2.046875 -2.890625 C 1.847656 -2.890625 1.675781 -2.84375 1.53125 -2.75 C 1.382812 -2.664062 1.265625 -2.53125 1.171875 -2.34375 C 1.085938 -2.15625 1.046875 -1.914062 1.046875 -1.625 C 1.046875 -1.34375 1.085938 -1.109375 1.171875 -0.921875 C 1.265625 -0.734375 1.382812 -0.59375 1.53125 -0.5 C 1.675781 -0.414062 1.847656 -0.375 2.046875 -0.375 Z M 2.046875 -0.375 "/></g></g></g><g fill="#ffffff" fill-opacity="1"><g transform="translate(23.701655, 6.947253)"><g><path d="M 0.5625 1.328125 L 0.5625 -3.265625 L 1.046875 -3.265625 L 1.046875 -2.78125 L 1.109375 -2.765625 C 1.359375 -3.140625 1.71875 -3.328125 2.1875 -3.328125 C 2.457031 -3.328125 2.691406 -3.265625 2.890625 -3.140625 C 3.097656 -3.015625 3.253906 -2.820312 3.359375 -2.5625 C 3.472656 -2.3125 3.53125 -2 3.53125 -1.625 C 3.53125 -1.257812 3.472656 -0.945312 3.359375 -0.6875 C 3.242188 -0.4375 3.078125 -0.25 2.859375 -0.125 C 2.648438 0 2.410156 0.0625 2.140625 0.0625 C 1.921875 0.0625 1.722656 0.0234375 1.546875 -0.046875 C 1.378906 -0.128906 1.234375 -0.257812 1.109375 -0.4375 L 1.046875 -0.421875 L 1.046875 1.328125 Z M 2.046875 -0.375 C 2.703125 -0.375 3.03125 -0.789062 3.03125 -1.625 C 3.03125 -2.46875 2.703125 -2.890625 2.046875 -2.890625 C 1.847656 -2.890625 1.675781 -2.84375 1.53125 -2.75 C 1.382812 -2.664062 1.265625 -2.53125 1.171875 -2.34375 C 1.085938 -2.15625 1.046875 -1.914062 1.046875 -1.625 C 1.046875 -1.34375 1.085938 -1.109375 1.171875 -0.921875 C 1.265625 -0.734375 1.382812 -0.59375 1.53125 -0.5 C 1.675781 -0.414062 1.847656 -0.375 2.046875 -0.375 Z M 2.046875 -0.375 "/></g></g></g><g fill="#ffffff" fill-opacity="1"><g transform="translate(27.207528, 6.947253)"><g><path d="M 1.875 0.0625 C 1.5625 0.0625 1.289062 0 1.0625 -0.125 C 0.84375 -0.257812 0.671875 -0.453125 0.546875 -0.703125 C 0.421875 -0.960938 0.359375 -1.269531 0.359375 -1.625 C 0.359375 -1.988281 0.421875 -2.296875 0.546875 -2.546875 C 0.671875 -2.804688 0.84375 -3 1.0625 -3.125 C 1.289062 -3.257812 1.5625 -3.328125 1.875 -3.328125 C 2.175781 -3.328125 2.441406 -3.257812 2.671875 -3.125 C 2.898438 -3 3.078125 -2.804688 3.203125 -2.546875 C 3.328125 -2.296875 3.390625 -1.988281 3.390625 -1.625 C 3.390625 -1.269531 3.328125 -0.960938 3.203125 -0.703125 C 3.078125 -0.453125 2.898438 -0.257812 2.671875 -0.125 C 2.441406 0 2.175781 0.0625 1.875 0.0625 Z M 1.875 -0.375 C 2.195312 -0.375 2.441406 -0.472656 2.609375 -0.671875 C 2.785156 -0.878906 2.875 -1.195312 2.875 -1.625 C 2.875 -2.0625 2.785156 -2.378906 2.609375 -2.578125 C 2.441406 -2.785156 2.195312 -2.890625 1.875 -2.890625 C 1.550781 -2.890625 1.300781 -2.785156 1.125 -2.578125 C 0.945312 -2.378906 0.859375 -2.0625 0.859375 -1.625 C 0.859375 -1.195312 0.945312 -0.878906 1.125 -0.671875 C 1.300781 -0.472656 1.550781 -0.375 1.875 -0.375 Z M 1.875 -0.375 "/></g></g></g><g fill="#ffffff" fill-opacity="1"><g transform="translate(30.565209, 6.947253)"><g><path d="M 1.296875 0.0625 C 1.066406 0.0625 0.882812 0 0.75 -0.125 C 0.625 -0.257812 0.5625 -0.457031 0.5625 -0.71875 L 0.5625 -4.578125 L 1.03125 -4.578125 L 1.03125 -0.75 C 1.03125 -0.613281 1.054688 -0.515625 1.109375 -0.453125 C 1.171875 -0.398438 1.253906 -0.375 1.359375 -0.375 C 1.429688 -0.375 1.5 -0.382812 1.5625 -0.40625 L 1.609375 -0.390625 L 1.65625 -0.015625 C 1.625 0.015625 1.570312 0.0351562 1.5 0.046875 C 1.4375 0.0546875 1.367188 0.0625 1.296875 0.0625 Z M 1.296875 0.0625 "/></g></g></g><g fill="#ffffff" fill-opacity="1"><g transform="translate(31.948969, 6.947253)"><g><path d="M 0.8125 -3.890625 C 0.707031 -3.890625 0.625 -3.921875 0.5625 -3.984375 C 0.5 -4.054688 0.46875 -4.140625 0.46875 -4.234375 C 0.46875 -4.335938 0.5 -4.421875 0.5625 -4.484375 C 0.625 -4.546875 0.707031 -4.578125 0.8125 -4.578125 C 0.914062 -4.578125 1 -4.546875 1.0625 -4.484375 C 1.125 -4.421875 1.15625 -4.335938 1.15625 -4.234375 C 1.15625 -4.140625 1.125 -4.054688 1.0625 -3.984375 C 1 -3.921875 0.914062 -3.890625 0.8125 -3.890625 Z M 0.5625 0 L 0.5625 -3.265625 L 1.046875 -3.265625 L 1.046875 0 Z M 0.5625 0 "/></g></g></g><g fill="#ffffff" fill-opacity="1"><g transform="translate(33.175645, 6.947253)"><g><path d="M 1.484375 0.0625 C 1.285156 0.0625 1.097656 0.0351562 0.921875 -0.015625 C 0.742188 -0.0664062 0.59375 -0.140625 0.46875 -0.234375 C 0.351562 -0.335938 0.269531 -0.445312 0.21875 -0.5625 L 0.5 -0.859375 L 0.5625 -0.859375 C 0.675781 -0.691406 0.804688 -0.566406 0.953125 -0.484375 C 1.097656 -0.410156 1.273438 -0.375 1.484375 -0.375 C 1.722656 -0.375 1.90625 -0.421875 2.03125 -0.515625 C 2.15625 -0.609375 2.21875 -0.738281 2.21875 -0.90625 C 2.21875 -1.03125 2.179688 -1.132812 2.109375 -1.21875 C 2.035156 -1.300781 1.914062 -1.363281 1.75 -1.40625 L 1.1875 -1.546875 C 0.894531 -1.617188 0.679688 -1.726562 0.546875 -1.875 C 0.410156 -2.03125 0.34375 -2.222656 0.34375 -2.453125 C 0.34375 -2.628906 0.390625 -2.78125 0.484375 -2.90625 C 0.578125 -3.039062 0.707031 -3.144531 0.875 -3.21875 C 1.039062 -3.289062 1.242188 -3.328125 1.484375 -3.328125 C 1.785156 -3.328125 2.019531 -3.285156 2.1875 -3.203125 C 2.363281 -3.117188 2.5 -3 2.59375 -2.84375 L 2.328125 -2.578125 L 2.265625 -2.578125 C 2.160156 -2.703125 2.046875 -2.789062 1.921875 -2.84375 C 1.796875 -2.894531 1.648438 -2.921875 1.484375 -2.921875 C 1.265625 -2.921875 1.097656 -2.878906 0.984375 -2.796875 C 0.867188 -2.722656 0.8125 -2.613281 0.8125 -2.46875 C 0.8125 -2.34375 0.851562 -2.238281 0.9375 -2.15625 C 1.019531 -2.070312 1.160156 -2.003906 1.359375 -1.953125 L 1.90625 -1.828125 C 2.1875 -1.765625 2.390625 -1.65625 2.515625 -1.5 C 2.640625 -1.34375 2.703125 -1.144531 2.703125 -0.90625 C 2.703125 -0.71875 2.65625 -0.550781 2.5625 -0.40625 C 2.476562 -0.257812 2.34375 -0.144531 2.15625 -0.0625 C 1.976562 0.0195312 1.753906 0.0625 1.484375 0.0625 Z M 1.484375 0.0625 "/></g></g></g></svg>